<svg width="44" height="44" viewBox="0 0 44 44" fill="none" xmlns="http://www.w3.org/2000/svg">
<rect width="44" height="44" rx="22" fill="white"/>
<path d="M20.65 29.11V14.89C20.65 13.54 20.08 13 18.64 13H15.01C13.57 13 13 13.54 13 14.89V29.11C13 30.46 13.57 31 15.01 31H18.64C20.08 31 20.65 30.46 20.65 29.11Z" fill="#EE6004"/>
<path opacity="0.4" d="M31.0001 29.11V14.89C31.0001 13.54 30.4301 13 28.9901 13H25.3601C23.9301 13 23.3501 13.54 23.3501 14.89V29.11C23.3501 30.46 23.9201 31 25.3601 31H28.9901C30.4301 31 31.0001 30.46 31.0001 29.11Z" fill="#EE6004"/>
</svg>
